# xmcd
#
# Track frame offsets: 
#        150
#        13249
#        28984
#        44968
#        59306
#        72865
#        96150
#        109501
#        126579
#        146163
#        160223
#        178095
#        190029
#
# Disc length: 2668 seconds
#
# Revision: 0
# Processed by: cddbd v1.5.2PL0 Copyright (c) Steve Scherf et al.
# Submitted via: ExactAudioCopyFreeDBPlugin 1.0
#
DISCID=c60a6a0d
DTITLE=Simon Ho - Bruxelles
DYEAR=2016
DGENRE=Blues
TTITLE0=like snow
TTITLE1=wohin
TTITLE2=jardin suspendu
TTITLE3=elisa
TTITLE4=bette mich
TTITLE5=dream
TTITLE6=mother
TTITLE7=sinking stars
TTITLE8=rose bleue
TTITLE9=et si c'était vrai
TTITLE10=kind
TTITLE11=waiting for you
TTITLE12=the end
EXTD=
EXTT0=
EXTT1=
EXTT2=
EXTT3=
EXTT4=
EXTT5=
EXTT6=
EXTT7=
EXTT8=
EXTT9=
EXTT10=
EXTT11=
EXTT12=
PLAYORDER=
